<svg width="385" height="441" viewBox="0 0 385 441" fill="none" xmlns="http://www.w3.org/2000/svg">
<path d="M385 125.938C385 177.158 343.325 218.68 291.916 218.68C240.506 218.68 156.738 165.522 156.738 114.302C156.738 63.0821 253.511 0 304.92 0C356.329 0 385 74.7177 385 125.938Z" fill="#FFC267"/>
<path d="M197.438 154.176C192.448 205.152 136.125 280.559 85.1486 275.569C34.1721 270.579 7.84597 187.082 12.836 136.105C17.826 85.129 63.1958 47.8496 114.172 52.8396C165.149 57.8296 202.428 103.199 197.438 154.176Z" fill="#4DEAFF"/>
<path d="M345.302 288.836C345.302 340.056 283.247 440.098 232.027 440.098C180.807 440.098 118.067 333.553 118.067 282.333C118.067 231.113 201.34 196.093 252.56 196.093C303.78 196.093 345.302 237.615 345.302 288.836Z" fill="#32E384"/>
</svg>
