<svg width="262" height="184" viewBox="0 0 262 184" fill="none" xmlns="http://www.w3.org/2000/svg">
<g opacity="0.2" clip-path="url(#clip0_11_104)">
<path d="M99.1429 -147H247.857C302.612 -147 347 -104.659 347 -52.4286V89.4286C347 141.659 302.612 184 247.857 184H99.1429C44.3878 184 0 141.659 0 89.4286V-52.4286C0 -104.659 44.3878 -147 99.1429 -147Z" fill="white"/>
<path d="M203.491 98.2048C184.326 98.2048 168.791 83.3855 168.791 65.1048C168.791 46.8242 184.326 32.0048 203.491 32.0048C222.655 32.0048 238.191 46.8242 238.191 65.1048C238.191 83.3855 222.655 98.2048 203.491 98.2048Z" fill="#000340"/>
<path d="M82.0407 114.755C62.8764 114.755 47.3407 99.9355 47.3407 81.6548C47.3407 63.3741 62.8764 48.5548 82.0407 48.5548C101.205 48.5548 116.741 63.3741 116.741 81.6548C116.741 99.9355 101.205 114.755 82.0407 114.755Z" fill="#000340"/>
</g>
<defs>
<clipPath id="clip0_11_104">
<rect width="347" height="331" fill="white" transform="matrix(-1 0 0 1 347 -147)"/>
</clipPath>
</defs>
</svg>
