<svg width="70" height="70" viewBox="0 0 70 70" fill="none" xmlns="http://www.w3.org/2000/svg">
<rect width="70" height="70" rx="20" fill="white"/>
<path d="M28.95 51.856C32.816 51.856 35.95 48.722 35.95 44.856C35.95 40.99 32.816 37.856 28.95 37.856C25.084 37.856 21.95 40.99 21.95 44.856C21.95 48.722 25.084 51.856 28.95 51.856Z" fill="#000340"/>
<path d="M53.45 55.356C57.316 55.356 60.45 52.222 60.45 48.356C60.45 44.49 57.316 41.356 53.45 41.356C49.584 41.356 46.45 44.49 46.45 48.356C46.45 52.222 49.584 55.356 53.45 55.356Z" fill="#000340"/>
<path d="M10.596 22.568H13.886V23.856H9V14.126H10.596V22.568ZM16.8167 14.126V23.856H15.2207V14.126H16.8167ZM20.5081 22.568H23.7981V23.856H18.9121V14.126H20.5081V22.568ZM29.5708 23.954C28.6655 23.954 27.8301 23.744 27.0648 23.324C26.3088 22.8947 25.7068 22.302 25.2588 21.546C24.8201 20.7807 24.6008 19.922 24.6008 18.97C24.6008 18.018 24.8201 17.164 25.2588 16.408C25.7068 15.652 26.3088 15.064 27.0648 14.644C27.8301 14.2147 28.6655 14 29.5708 14C30.4855 14 31.3208 14.2147 32.0768 14.644C32.842 15.064 33.444 15.652 33.8829 16.408C34.3215 17.164 34.5409 18.018 34.5409 18.97C34.5409 19.922 34.3215 20.7807 33.8829 21.546C33.444 22.302 32.842 22.8947 32.0768 23.324C31.3208 23.744 30.4855 23.954 29.5708 23.954ZM29.5708 22.568C30.2148 22.568 30.7888 22.4233 31.2928 22.134C31.7968 21.8353 32.1888 21.4153 32.4689 20.874C32.758 20.3233 32.9029 19.6887 32.9029 18.97C32.9029 18.2513 32.758 17.6213 32.4689 17.08C32.1888 16.5387 31.7968 16.1233 31.2928 15.834C30.7888 15.5447 30.2148 15.4 29.5708 15.4C28.9268 15.4 28.3528 15.5447 27.8488 15.834C27.3448 16.1233 26.9481 16.5387 26.6588 17.08C26.3788 17.6213 26.2388 18.2513 26.2388 18.97C26.2388 19.6887 26.3788 20.3233 26.6588 20.874C26.9481 21.4153 27.3448 21.8353 27.8488 22.134C28.3528 22.4233 28.9268 22.568 29.5708 22.568Z" fill="#000340"/>
</svg>
