<svg width="209" height="70" viewBox="0 0 209 70" fill="none" xmlns="http://www.w3.org/2000/svg">
<g clip-path="url(#clip0_14_95)">
<path d="M50 0H20C8.9543 0 0 8.9543 0 20V50C0 61.0457 8.9543 70 20 70H50C61.0457 70 70 61.0457 70 50V20C70 8.9543 61.0457 0 50 0Z" fill="white"/>
<path d="M28.95 51.856C32.816 51.856 35.95 48.722 35.95 44.856C35.95 40.99 32.816 37.856 28.95 37.856C25.084 37.856 21.95 40.99 21.95 44.856C21.95 48.722 25.084 51.856 28.95 51.856Z" fill="#000340"/>
<path d="M53.45 55.356C57.316 55.356 60.45 52.222 60.45 48.356C60.45 44.49 57.316 41.356 53.45 41.356C49.584 41.356 46.45 44.49 46.45 48.356C46.45 52.222 49.584 55.356 53.45 55.356Z" fill="#000340"/>
<path d="M10.596 22.568H13.886V23.856H9V14.126H10.596V22.568ZM16.8167 14.126V23.856H15.2207V14.126H16.8167ZM20.5081 22.568H23.7981V23.856H18.9121V14.126H20.5081V22.568ZM29.5708 23.954C28.6655 23.954 27.8301 23.744 27.0648 23.324C26.3088 22.8947 25.7068 22.302 25.2588 21.546C24.8201 20.7807 24.6008 19.922 24.6008 18.97C24.6008 18.018 24.8201 17.164 25.2588 16.408C25.7068 15.652 26.3088 15.064 27.0648 14.644C27.8301 14.2147 28.6655 14 29.5708 14C30.4855 14 31.3208 14.2147 32.0768 14.644C32.842 15.064 33.444 15.652 33.8829 16.408C34.3215 17.164 34.5409 18.018 34.5409 18.97C34.5409 19.922 34.3215 20.7807 33.8829 21.546C33.444 22.302 32.842 22.8947 32.0768 23.324C31.3208 23.744 30.4855 23.954 29.5708 23.954ZM29.5708 22.568C30.2148 22.568 30.7888 22.4233 31.2928 22.134C31.7968 21.8353 32.1888 21.4153 32.4689 20.874C32.758 20.3233 32.9029 19.6887 32.9029 18.97C32.9029 18.2513 32.758 17.6213 32.4689 17.08C32.1888 16.5387 31.7968 16.1233 31.2928 15.834C30.7888 15.5447 30.2148 15.4 29.5708 15.4C28.9268 15.4 28.3528 15.5447 27.8488 15.834C27.3448 16.1233 26.9481 16.5387 26.6588 17.08C26.3788 17.6213 26.2388 18.2513 26.2388 18.97C26.2388 19.6887 26.3788 20.3233 26.6588 20.874C26.9481 21.4153 27.3448 21.8353 27.8488 22.134C28.3528 22.4233 28.9268 22.568 29.5708 22.568Z" fill="#000340"/>
<path d="M90 27.2855V12.2153H92.7987V24.9173H100.678V27.2855H90Z" fill="white"/>
<path d="M102.888 27.2855V12.2153H105.687V27.2855H102.888Z" fill="white"/>
<path d="M109.763 27.2855V12.2153H112.562V24.9173H120.441V27.2855H109.763Z" fill="white"/>
<path d="M129.439 27.5008C128.262 27.5008 127.178 27.307 126.188 26.9195C125.198 26.532 124.336 25.9937 123.604 25.3048C122.873 24.6015 122.306 23.7835 121.904 22.8505C121.502 21.9033 121.301 20.8699 121.301 19.7504C121.301 18.6309 121.502 17.6047 121.904 16.6718C122.306 15.7245 122.873 14.9064 123.604 14.2175C124.336 13.5142 125.198 12.9688 126.188 12.5813C127.178 12.1938 128.255 12 129.417 12C130.594 12 131.671 12.1938 132.647 12.5813C133.637 12.9688 134.498 13.5142 135.23 14.2175C135.962 14.9064 136.529 15.7245 136.931 16.6718C137.333 17.6047 137.534 18.6309 137.534 19.7504C137.534 20.8699 137.333 21.9033 136.931 22.8505C136.529 23.7978 135.962 24.6159 135.23 25.3048C134.498 25.9937 133.637 26.532 132.647 26.9195C131.671 27.307 130.601 27.5008 129.439 27.5008ZM129.417 25.0465C130.178 25.0465 130.881 24.9173 131.527 24.659C132.173 24.4006 132.733 24.0346 133.206 23.561C133.68 23.073 134.046 22.5133 134.304 21.8817C134.577 21.2359 134.713 20.5254 134.713 19.7504C134.713 18.9753 134.577 18.2721 134.304 17.6406C134.046 16.9947 133.68 16.4349 133.206 15.9613C132.733 15.4733 132.173 15.1002 131.527 14.8418C130.881 14.5835 130.178 14.4543 129.417 14.4543C128.657 14.4543 127.953 14.5835 127.307 14.8418C126.676 15.1002 126.116 15.4733 125.628 15.9613C125.155 16.4349 124.781 16.9947 124.509 17.6406C124.25 18.2721 124.121 18.9753 124.121 19.7504C124.121 20.5111 124.25 21.2143 124.509 21.8602C124.781 22.5061 125.155 23.073 125.628 23.561C126.102 24.0346 126.662 24.4006 127.307 24.659C127.953 24.9173 128.657 25.0465 129.417 25.0465Z" fill="white"/>
<path d="M90 53.2995V38.2293H92.3036L98.8914 49.2305H97.6858L104.166 38.2293H106.47L106.491 53.2995H103.843L103.822 42.3844H104.381L98.8699 51.5772H97.6212L92.0237 42.3844H92.6696V53.2995H90Z" fill="white"/>
<path d="M115.707 53.4502C114.43 53.4502 113.31 53.199 112.349 52.6967C111.401 52.18 110.662 51.4767 110.131 50.5869C109.614 49.697 109.356 48.6851 109.356 47.5513C109.356 46.4031 109.607 45.3912 110.11 44.5157C110.626 43.6259 111.33 42.9298 112.219 42.4274C113.124 41.9251 114.15 41.6739 115.298 41.6739C116.418 41.6739 117.415 41.9179 118.291 42.4059C119.166 42.8939 119.855 43.5828 120.357 44.4727C120.86 45.3625 121.111 46.4103 121.111 47.6159C121.111 47.7307 121.104 47.8599 121.089 48.0034C121.089 48.1469 121.082 48.2833 121.068 48.4124H111.487V46.6256H119.647L118.592 47.1853C118.606 46.5251 118.47 45.9438 118.183 45.4415C117.896 44.9391 117.501 44.5444 116.999 44.2574C116.511 43.9703 115.944 43.8268 115.298 43.8268C114.638 43.8268 114.057 43.9703 113.554 44.2574C113.066 44.5444 112.679 44.9463 112.392 45.463C112.119 45.9653 111.983 46.561 111.983 47.2499V47.6805C111.983 48.3694 112.141 48.9794 112.456 49.5104C112.772 50.0415 113.217 50.4505 113.791 50.7376C114.365 51.0246 115.025 51.1681 115.772 51.1681C116.418 51.1681 116.999 51.0677 117.516 50.8667C118.032 50.6658 118.492 50.35 118.893 49.9195L120.336 51.5772C119.819 52.18 119.166 52.6465 118.377 52.9766C117.602 53.2923 116.712 53.4502 115.707 53.4502Z" fill="white"/>
<path d="M127.248 53.4502C126.286 53.4502 125.361 53.3282 124.471 53.0842C123.595 52.8259 122.899 52.5173 122.383 52.1585L123.416 50.1132C123.933 50.4433 124.55 50.716 125.267 50.9313C125.985 51.1466 126.703 51.2543 127.42 51.2543C128.267 51.2543 128.877 51.1394 129.25 50.9098C129.638 50.6802 129.832 50.3716 129.832 49.9841C129.832 49.6683 129.702 49.4315 129.444 49.2736C129.186 49.1014 128.848 48.9722 128.432 48.8861C128.016 48.8 127.549 48.721 127.033 48.6493C126.53 48.5775 126.021 48.4842 125.504 48.3694C125.002 48.2402 124.543 48.0608 124.126 47.8312C123.71 47.5872 123.373 47.2642 123.115 46.8624C122.856 46.4605 122.727 45.9295 122.727 45.2692C122.727 44.5373 122.935 43.9057 123.351 43.3747C123.768 42.8293 124.349 42.4131 125.095 42.126C125.856 41.8246 126.753 41.6739 127.786 41.6739C128.561 41.6739 129.344 41.76 130.133 41.9323C130.922 42.1045 131.575 42.3485 132.092 42.6642L131.059 44.7095C130.513 44.3794 129.961 44.1569 129.401 44.0421C128.856 43.9129 128.31 43.8483 127.765 43.8483C126.947 43.8483 126.337 43.9703 125.935 44.2143C125.547 44.4583 125.354 44.7669 125.354 45.1401C125.354 45.4845 125.483 45.7429 125.741 45.9151C125.999 46.0873 126.337 46.2237 126.753 46.3242C127.169 46.4246 127.628 46.5107 128.131 46.5825C128.647 46.6399 129.157 46.7332 129.659 46.8624C130.162 46.9915 130.621 47.171 131.037 47.4006C131.468 47.6159 131.812 47.9245 132.071 48.3263C132.329 48.7282 132.458 49.2521 132.458 49.8979C132.458 50.6156 132.243 51.2399 131.812 51.771C131.396 52.302 130.8 52.7182 130.025 53.0196C129.25 53.3067 128.325 53.4502 127.248 53.4502Z" fill="white"/>
<path d="M138.328 53.4502C137.366 53.4502 136.441 53.3282 135.551 53.0842C134.675 52.8259 133.979 52.5173 133.462 52.1585L134.496 50.1132C135.012 50.4433 135.63 50.716 136.347 50.9313C137.065 51.1466 137.782 51.2543 138.5 51.2543C139.347 51.2543 139.957 51.1394 140.33 50.9098C140.718 50.6802 140.911 50.3716 140.911 49.9841C140.911 49.6683 140.782 49.4315 140.524 49.2736C140.265 49.1014 139.928 48.9722 139.512 48.8861C139.096 48.8 138.629 48.721 138.113 48.6493C137.61 48.5775 137.101 48.4842 136.584 48.3694C136.082 48.2402 135.622 48.0608 135.206 47.8312C134.79 47.5872 134.453 47.2642 134.194 46.8624C133.936 46.4605 133.807 45.9295 133.807 45.2692C133.807 44.5373 134.015 43.9057 134.431 43.3747C134.847 42.8293 135.429 42.4131 136.175 42.126C136.936 41.8246 137.833 41.6739 138.866 41.6739C139.641 41.6739 140.423 41.76 141.213 41.9323C142.002 42.1045 142.655 42.3485 143.172 42.6642L142.138 44.7095C141.593 44.3794 141.041 44.1569 140.481 44.0421C139.935 43.9129 139.39 43.8483 138.845 43.8483C138.026 43.8483 137.416 43.9703 137.015 44.2143C136.627 44.4583 136.433 44.7669 136.433 45.1401C136.433 45.4845 136.563 45.7429 136.821 45.9151C137.079 46.0873 137.416 46.2237 137.833 46.3242C138.249 46.4246 138.708 46.5107 139.211 46.5825C139.727 46.6399 140.237 46.7332 140.739 46.8624C141.241 46.9915 141.701 47.171 142.117 47.4006C142.548 47.6159 142.892 47.9245 143.15 48.3263C143.409 48.7282 143.538 49.2521 143.538 49.8979C143.538 50.6156 143.323 51.2399 142.892 51.771C142.476 52.302 141.88 52.7182 141.105 53.0196C140.33 53.3067 139.404 53.4502 138.328 53.4502Z" fill="white"/>
<path d="M151.259 53.4502C149.982 53.4502 148.862 53.199 147.901 52.6967C146.953 52.18 146.214 51.4767 145.683 50.5869C145.166 49.697 144.908 48.6851 144.908 47.5513C144.908 46.4031 145.159 45.3912 145.662 44.5157C146.178 43.6259 146.882 42.9298 147.771 42.4274C148.676 41.9251 149.702 41.6739 150.85 41.6739C151.97 41.6739 152.967 41.9179 153.843 42.4059C154.718 42.8939 155.407 43.5828 155.909 44.4727C156.412 45.3625 156.663 46.4103 156.663 47.6159C156.663 47.7307 156.656 47.8599 156.641 48.0034C156.641 48.1469 156.634 48.2833 156.62 48.4124H147.039V46.6256H155.199L154.144 47.1853C154.158 46.5251 154.022 45.9438 153.735 45.4415C153.448 44.9391 153.053 44.5444 152.551 44.2574C152.063 43.9703 151.496 43.8268 150.85 43.8268C150.19 43.8268 149.609 43.9703 149.106 44.2574C148.618 44.5444 148.231 44.9463 147.944 45.463C147.671 45.9653 147.535 46.561 147.535 47.2499V47.6805C147.535 48.3694 147.693 48.9794 148.008 49.5104C148.324 50.0415 148.769 50.4505 149.343 50.7376C149.917 51.0246 150.577 51.1681 151.324 51.1681C151.97 51.1681 152.551 51.0677 153.068 50.8667C153.584 50.6658 154.044 50.35 154.445 49.9195L155.888 51.5772C155.371 52.18 154.718 52.6465 153.929 52.9766C153.154 53.2923 152.264 53.4502 151.259 53.4502Z" fill="white"/>
<path d="M165.771 41.6739C166.69 41.6739 167.508 41.8533 168.225 42.2121C168.957 42.571 169.531 43.1235 169.948 43.8699C170.364 44.6018 170.572 45.5491 170.572 46.7117V53.2995H167.881V47.0561C167.881 46.0371 167.637 45.2764 167.149 44.7741C166.675 44.2717 166.008 44.0206 165.147 44.0206C164.515 44.0206 163.955 44.1497 163.468 44.4081C162.98 44.6664 162.599 45.0539 162.326 45.5706C162.068 46.073 161.939 46.7117 161.939 47.4867V53.2995H159.248V41.8031H161.81V44.9032L161.358 43.956C161.76 43.224 162.341 42.6642 163.102 42.2767C163.877 41.8749 164.766 41.6739 165.771 41.6739Z" fill="white"/>
<path d="M179.217 57.6268C178.155 57.6268 177.114 57.4833 176.095 57.1962C175.09 56.9235 174.265 56.5216 173.619 55.9906L174.825 53.9669C175.327 54.3831 175.959 54.7132 176.72 54.9572C177.495 55.2156 178.277 55.3447 179.066 55.3447C180.329 55.3447 181.255 55.0505 181.843 54.4621C182.432 53.888 182.726 53.0196 182.726 51.8571V49.8118L182.941 47.2068L182.855 44.6018V41.8031H185.417V51.5557C185.417 53.6368 184.886 55.1653 183.824 56.1413C182.762 57.1316 181.226 57.6268 179.217 57.6268ZM178.872 52.7828C177.782 52.7828 176.791 52.5532 175.901 52.0939C175.026 51.6202 174.33 50.9672 173.813 50.1348C173.311 49.3023 173.06 48.3263 173.06 47.2068C173.06 46.1017 173.311 45.1329 173.813 44.3004C174.33 43.468 175.026 42.8221 175.901 42.3628C176.791 41.9036 177.782 41.6739 178.872 41.6739C179.848 41.6739 180.724 41.8677 181.499 42.2552C182.274 42.6427 182.891 43.2455 183.35 44.0636C183.824 44.8817 184.061 45.9295 184.061 47.2068C184.061 48.4842 183.824 49.5391 183.35 50.3716C182.891 51.1897 182.274 51.7997 181.499 52.2015C180.724 52.589 179.848 52.7828 178.872 52.7828ZM179.281 50.5007C179.956 50.5007 180.559 50.3644 181.09 50.0917C181.621 49.8046 182.03 49.4171 182.317 48.9291C182.618 48.4268 182.769 47.8527 182.769 47.2068C182.769 46.561 182.618 45.994 182.317 45.5061C182.03 45.0037 181.621 44.6234 181.09 44.365C180.559 44.0923 179.956 43.956 179.281 43.956C178.607 43.956 177.997 44.0923 177.451 44.365C176.92 44.6234 176.504 45.0037 176.203 45.5061C175.916 45.994 175.772 46.561 175.772 47.2068C175.772 47.8527 175.916 48.4268 176.203 48.9291C176.504 49.4171 176.92 49.8046 177.451 50.0917C177.997 50.3644 178.607 50.5007 179.281 50.5007Z" fill="white"/>
<path d="M194.359 53.4502C193.081 53.4502 191.962 53.199 191 52.6967C190.053 52.18 189.314 51.4767 188.783 50.5869C188.266 49.697 188.008 48.6851 188.008 47.5513C188.008 46.4031 188.259 45.3912 188.761 44.5157C189.278 43.6259 189.981 42.9298 190.871 42.4274C191.775 41.9251 192.802 41.6739 193.95 41.6739C195.069 41.6739 196.067 41.9179 196.942 42.4059C197.818 42.8939 198.507 43.5828 199.009 44.4727C199.511 45.3625 199.763 46.4103 199.763 47.6159C199.763 47.7307 199.755 47.8599 199.741 48.0034C199.741 48.1469 199.734 48.2833 199.72 48.4124H190.139V46.6256H198.299L197.244 47.1853C197.258 46.5251 197.122 45.9438 196.835 45.4415C196.548 44.9391 196.153 44.5444 195.651 44.2574C195.163 43.9703 194.596 43.8268 193.95 43.8268C193.29 43.8268 192.708 43.9703 192.206 44.2574C191.718 44.5444 191.33 44.9463 191.043 45.463C190.771 45.9653 190.634 46.561 190.634 47.2499V47.6805C190.634 48.3694 190.792 48.9794 191.108 49.5104C191.424 50.0415 191.869 50.4505 192.443 50.7376C193.017 51.0246 193.677 51.1681 194.423 51.1681C195.069 51.1681 195.651 51.0677 196.167 50.8667C196.684 50.6658 197.143 50.35 197.545 49.9195L198.988 51.5772C198.471 52.18 197.818 52.6465 197.028 52.9766C196.253 53.2923 195.364 53.4502 194.359 53.4502Z" fill="white"/>
<path d="M202.348 53.2995V41.8031H204.91V44.9678L204.608 44.0421C204.953 43.2671 205.491 42.6786 206.223 42.2767C206.969 41.8749 207.895 41.6739 209 41.6739V44.2359C208.885 44.2071 208.778 44.1928 208.677 44.1928C208.577 44.1784 208.476 44.1713 208.376 44.1713C207.357 44.1713 206.546 44.4727 205.943 45.0755C205.34 45.6639 205.039 46.5466 205.039 47.7235V53.2995H202.348Z" fill="white"/>
<path d="M153.224 19.4337C153.268 20.4345 152.308 21.2202 150.387 22.7915C147.519 25.138 146.086 26.3112 144.942 25.7693C143.798 25.2274 143.798 23.3747 143.798 19.6692C143.798 16.2997 143.798 14.615 144.864 14.0519C145.929 13.4888 147.321 14.4378 150.105 16.336C152.156 17.7339 153.181 18.4328 153.224 19.4337Z" stroke="white" stroke-width="2"/>
</g>
<defs>
<clipPath id="clip0_14_95">
<rect width="209" height="70" fill="white"/>
</clipPath>
</defs>
</svg>
