<svg width="20" height="21" viewBox="0 0 20 21" fill="none" xmlns="http://www.w3.org/2000/svg">
<path d="M10.183 20.5C4.56844 20.5 0 16.0146 0 10.5C0 4.98539 4.56844 0.5 10.183 0.5C12.7266 0.5 15.1613 1.42561 17.0409 3.107L17.3833 3.4144L14.0252 6.71264L13.714 6.45109C12.7284 5.62228 11.4747 5.16542 10.183 5.16542C7.18812 5.16542 4.75 7.55842 4.75 10.5C4.75 13.4416 7.18812 15.8346 10.183 15.8346C12.3427 15.8346 14.0494 14.751 14.8535 12.9049H9.74036V8.40251L19.7228 8.4161L19.7972 8.76087C20.3176 11.1878 19.9009 14.7578 17.7913 17.3122C16.0449 19.4266 13.4857 20.5 10.183 20.5Z" fill="black"/>
</svg>
