<svg width="20" height="21" viewBox="0 0 20 21" fill="none" xmlns="http://www.w3.org/2000/svg">
<path d="M5.90909 0.5C2.65 0.5 0 3.15 0 6.40909V14.5909C0 17.85 2.65 20.5 5.90909 20.5H14.0909C17.35 20.5 20 17.85 20 14.5909V6.40909C20 3.15 17.35 0.5 14.0909 0.5H5.90909ZM15.4545 4.13636C15.9545 4.13636 16.3636 4.54545 16.3636 5.04545C16.3636 5.54545 15.9545 5.95455 15.4545 5.95455C14.9545 5.95455 14.5455 5.54545 14.5455 5.04545C14.5455 4.54545 14.9545 4.13636 15.4545 4.13636ZM10 5.5C12.7591 5.5 15 7.74091 15 10.5C15 13.2591 12.7591 15.5 10 15.5C7.24091 15.5 5 13.2591 5 10.5C5 7.74091 7.24091 5.5 10 5.5ZM10 6.40909C7.74545 6.40909 5.90909 8.24545 5.90909 10.5C5.90909 12.7545 7.74545 14.5909 10 14.5909C12.2545 14.5909 14.0909 12.7545 14.0909 10.5C14.0909 8.24545 12.2545 6.40909 10 6.40909Z" fill="black"/>
</svg>
