<svg width="20" height="19" viewBox="0 0 20 19" fill="none" xmlns="http://www.w3.org/2000/svg">
<path d="M19.6223 0.747447C19.2812 0.461247 18.7453 0.420296 18.1913 0.640347H18.1904C17.6077 0.871648 1.69614 7.62347 1.0484 7.89932C0.930588 7.93982 -0.09834 8.31962 0.00764594 9.16562C0.10226 9.92837 0.929223 10.2443 1.03021 10.2807L5.07541 11.651C5.34379 12.5348 6.33314 15.7955 6.55194 16.4921C6.6884 16.9263 6.91083 17.4969 7.30066 17.6144C7.64273 17.7449 7.98298 17.6256 8.20314 17.4546L10.6763 15.1853L14.6687 18.2655L14.7638 18.3218C15.0349 18.4406 15.2946 18.5 15.5425 18.5C15.7341 18.5 15.9178 18.4645 16.0934 18.3934C16.6916 18.1503 16.9308 17.5865 16.9558 17.5226L19.938 2.1879C20.12 1.3689 19.8671 0.952198 19.6223 0.747447ZM8.643 12.1991L7.27837 15.7991L5.91375 11.2991L16.3759 3.64906L8.643 12.1991Z" fill="black"/>
</svg>
